<svg width="30" height="30" viewBox="0 0 30 30" fill="none" xmlns="http://www.w3.org/2000/svg">
<path d="M12.5556 4H5.22222C4.89807 4 4.58719 4.1317 4.35798 4.36612C4.12877 4.60054 4 4.91848 4 5.25V12.75C4 13.0815 4.12877 13.3995 4.35798 13.6339C4.58719 13.8683 4.89807 14 5.22222 14H12.5556C12.8797 14 13.1906 13.8683 13.4198 13.6339C13.649 13.3995 13.7778 13.0815 13.7778 12.75V5.25C13.7778 4.91848 13.649 4.60054 13.4198 4.36612C13.1906 4.1317 12.8797 4 12.5556 4V4ZM24.7778 16.5H17.4444C17.1203 16.5 16.8094 16.6317 16.5802 16.8661C16.351 17.1005 16.2222 17.4185 16.2222 17.75V25.25C16.2222 25.5815 16.351 25.8995 16.5802 26.1339C16.8094 26.3683 17.1203 26.5 17.4444 26.5H24.7778C25.1019 26.5 25.4128 26.3683 25.642 26.1339C25.8712 25.8995 26 25.5815 26 25.25V17.75C26 17.4185 25.8712 17.1005 25.642 16.8661C25.4128 16.6317 25.1019 16.5 24.7778 16.5ZM21.1111 4C18.4149 4 16.2222 6.2425 16.2222 9C16.2222 11.7575 18.4149 14 21.1111 14C23.8073 14 26 11.7575 26 9C26 6.2425 23.8073 4 21.1111 4ZM8.88889 16.5C6.19267 16.5 4 18.7425 4 21.5C4 24.2575 6.19267 26.5 8.88889 26.5C11.5851 26.5 13.7778 24.2575 13.7778 21.5C13.7778 18.7425 11.5851 16.5 8.88889 16.5Z" fill="#FFAF36"/>
</svg>
