<svg width="30" height="30" viewBox="0 0 30 30" fill="none" xmlns="http://www.w3.org/2000/svg">
<path d="M12.5 3.75H5C4.66848 3.75 4.35054 3.8817 4.11612 4.11612C3.8817 4.35054 3.75 4.66848 3.75 5V12.5C3.75 12.8315 3.8817 13.1495 4.11612 13.3839C4.35054 13.6183 4.66848 13.75 5 13.75H12.5C12.8315 13.75 13.1495 13.6183 13.3839 13.3839C13.6183 13.1495 13.75 12.8315 13.75 12.5V5C13.75 4.66848 13.6183 4.35054 13.3839 4.11612C13.1495 3.8817 12.8315 3.75 12.5 3.75V3.75ZM11.25 11.25H6.25V6.25H11.25V11.25ZM25 16.25H17.5C17.1685 16.25 16.8505 16.3817 16.6161 16.6161C16.3817 16.8505 16.25 17.1685 16.25 17.5V25C16.25 25.3315 16.3817 25.6495 16.6161 25.8839C16.8505 26.1183 17.1685 26.25 17.5 26.25H25C25.3315 26.25 25.6495 26.1183 25.8839 25.8839C26.1183 25.6495 26.25 25.3315 26.25 25V17.5C26.25 17.1685 26.1183 16.8505 25.8839 16.6161C25.6495 16.3817 25.3315 16.25 25 16.25ZM23.75 23.75H18.75V18.75H23.75V23.75ZM21.25 3.75C18.4925 3.75 16.25 5.9925 16.25 8.75C16.25 11.5075 18.4925 13.75 21.25 13.75C24.0075 13.75 26.25 11.5075 26.25 8.75C26.25 5.9925 24.0075 3.75 21.25 3.75ZM21.25 11.25C19.8712 11.25 18.75 10.1288 18.75 8.75C18.75 7.37125 19.8712 6.25 21.25 6.25C22.6288 6.25 23.75 7.37125 23.75 8.75C23.75 10.1288 22.6288 11.25 21.25 11.25ZM8.75 16.25C5.9925 16.25 3.75 18.4925 3.75 21.25C3.75 24.0075 5.9925 26.25 8.75 26.25C11.5075 26.25 13.75 24.0075 13.75 21.25C13.75 18.4925 11.5075 16.25 8.75 16.25ZM8.75 23.75C7.37125 23.75 6.25 22.6288 6.25 21.25C6.25 19.8712 7.37125 18.75 8.75 18.75C10.1288 18.75 11.25 19.8712 11.25 21.25C11.25 22.6288 10.1288 23.75 8.75 23.75Z" fill="white"/>
</svg>
