<svg width="25" height="26" viewBox="0 0 25 26" fill="none" xmlns="http://www.w3.org/2000/svg">
<path d="M1.21656 8.74957L1.21747 8.74785C1.36319 8.47135 1.56083 8.24793 1.82019 8.06791L1.82022 8.06796L1.82884 8.06184L11.1975 1.41149C11.4054 1.26912 11.614 1.16791 11.8243 1.10155C12.0363 1.03468 12.2601 1 12.5 1C12.7399 1 12.9637 1.03468 13.1757 1.10155C13.386 1.16791 13.5946 1.26912 13.8025 1.41149L23.1712 8.06184L23.1711 8.06188L23.1798 8.06791C23.4395 8.24813 23.638 8.472 23.7848 8.74921C23.9303 9.02576 24 9.30916 24 9.61257V22.9223C24 23.4501 23.8153 23.8874 23.3953 24.2858C22.9726 24.6848 22.4842 24.88 21.875 24.88H16.625V15.528V14.528H15.625H9.375H8.375V15.528V24.88H3.125C2.51543 24.88 2.02766 24.6846 1.60615 24.2856C1.18492 23.8869 1 23.4497 1 22.9223V9.61257C1 9.3095 1.07004 9.02627 1.21656 8.74957Z" stroke="white" stroke-width="2"/>
</svg>
