<svg width="25" height="26" viewBox="0 0 25 26" fill="none" xmlns="http://www.w3.org/2000/svg">
<path d="M3.125 25.88C2.26562 25.88 1.53021 25.5906 0.91875 25.0119C0.30625 24.4322 0 23.7357 0 22.9223V9.61257C0 9.14427 0.110937 8.70061 0.332812 8.2816C0.553646 7.86259 0.859375 7.51752 1.25 7.2464L10.625 0.591543C10.9115 0.394362 11.2109 0.246476 11.5234 0.147886C11.8359 0.0492951 12.1615 0 12.5 0C12.8385 0 13.1641 0.0492951 13.4766 0.147886C13.7891 0.246476 14.0885 0.394362 14.375 0.591543L23.75 7.2464C24.1406 7.51752 24.4469 7.86259 24.6688 8.2816C24.8896 8.70061 25 9.14427 25 9.61257V22.9223C25 23.7357 24.6943 24.4322 24.0828 25.0119C23.4703 25.5906 22.7344 25.88 21.875 25.88H15.625V15.528H9.375V25.88H3.125Z" fill="#FFAF36"/>
</svg>
