<svg width="30" height="30" viewBox="0 0 30 30" fill="none" xmlns="http://www.w3.org/2000/svg">
<path d="M24.4365 13.7461C23.8678 12.466 23.041 11.317 22.0078 10.3711L21.1553 9.58886C21.1263 9.56303 21.0915 9.5447 21.0538 9.53548C21.0161 9.52626 20.9767 9.52642 20.9391 9.53597C20.9015 9.54552 20.8669 9.56415 20.8381 9.59022C20.8094 9.6163 20.7875 9.64903 20.7744 9.68554L20.3936 10.7783C20.1562 11.4639 19.7197 12.1641 19.1016 12.8525C19.0605 12.8965 19.0137 12.9082 18.9814 12.9111C18.9492 12.9141 18.8994 12.9082 18.8555 12.8672C18.8145 12.832 18.7939 12.7793 18.7969 12.7266C18.9053 10.9629 18.3779 8.97363 17.2236 6.80859C16.2686 5.00976 14.9414 3.60644 13.2832 2.62793L12.0732 1.91601C11.915 1.82226 11.7129 1.94531 11.7217 2.12988L11.7861 3.53613C11.8301 4.49707 11.7188 5.34668 11.4551 6.05273C11.1328 6.91699 10.6699 7.71972 10.0781 8.44043C9.66628 8.94129 9.19949 9.39433 8.68652 9.79101C7.45109 10.7407 6.44652 11.9576 5.74805 13.3506C5.05129 14.7557 4.68835 16.3027 4.6875 17.8711C4.6875 19.2539 4.95996 20.5928 5.49902 21.8555C6.01953 23.0712 6.77068 24.1745 7.71094 25.1045C8.66016 26.042 9.76172 26.7803 10.9893 27.293C12.2607 27.8262 13.6084 28.0957 15 28.0957C16.3916 28.0957 17.7393 27.8262 19.0107 27.2959C20.2353 26.7862 21.3488 26.0429 22.2891 25.1074C23.2383 24.1699 23.9824 23.0742 24.501 21.8584C25.0392 20.5991 25.3153 19.2435 25.3125 17.874C25.3125 16.4443 25.0195 15.0557 24.4365 13.7461V13.7461Z" fill="#FFAF36"/>
</svg>
